<svg version="1.1" id="Layer_1" xmlns="http://www.w3.org/2000/svg" xmlns:xlink="http://www.w3.org/1999/xlink" x="0px" y="0px"
	 width="100%" viewBox="0 0 312 109" enable-background="new 0 0 312 109" xml:space="preserve">
<path fill="#12385D" opacity="1.000000" stroke="none" 
	d="
M204.000000,110.000000 
	C136.000015,110.000000 68.500038,110.000000 1.000045,110.000000 
	C1.000030,73.666695 1.000030,37.333397 1.000015,1.000070 
	C104.999939,1.000046 208.999878,1.000046 312.999878,1.000023 
	C312.999908,37.333260 312.999908,73.666519 312.999939,109.999893 
	C276.833344,110.000000 240.666672,110.000000 204.000000,110.000000 
M106.269531,71.242653 
	C106.486046,73.724037 106.893501,76.206772 106.875877,78.686493 
	C106.846939,82.761108 108.579117,85.173691 112.746597,84.936333 
	C116.709389,84.710640 118.068504,82.028961 117.703796,78.344055 
	C117.196396,73.217514 116.555191,68.103470 116.100105,62.972656 
	C115.366402,54.700592 116.373482,53.395882 125.377304,51.116428 
	C125.947182,53.460838 126.718887,55.793556 127.057632,58.187538 
	C128.057709,65.255341 128.846039,72.352821 129.798737,79.427719 
	C130.302719,83.170395 132.794586,84.549667 136.230133,83.892555 
	C139.470535,83.272781 140.898743,81.110611 140.424530,77.681915 
	C139.149979,68.466225 138.202133,59.199524 136.696381,50.023350 
	C135.327621,41.682098 128.986267,38.115154 120.793495,40.718258 
	C118.494148,41.448833 116.344421,42.650337 114.072983,43.659412 
	C107.272232,37.029202 101.008324,40.137825 94.750244,45.509598 
	C94.544891,44.052231 94.722603,42.965698 94.268684,42.514248 
	C92.639931,40.894333 90.962456,38.712814 88.974831,38.290676 
	C87.759979,38.032665 85.722748,40.424820 84.481544,41.969578 
	C83.732971,42.901230 83.535423,44.492493 83.546547,45.783432 
	C83.636673,56.248066 83.725243,66.715332 84.064987,77.173653 
	C84.170853,80.432335 86.200455,82.325462 89.713440,81.990143 
	C93.044640,81.672173 94.767052,79.907722 94.761108,76.449402 
	C94.754242,72.458694 94.889656,68.467621 94.973526,64.476929 
	C95.096519,58.624058 98.752060,53.935341 104.695053,51.992702 
	C105.182915,58.107529 105.670776,64.222351 106.269531,71.242653 
M49.395138,21.996269 
	C46.981499,23.549442 44.305347,24.812149 42.204193,26.711082 
	C36.265427,32.078281 30.562391,37.706310 25.232216,42.787586 
	C25.232216,37.734756 25.209385,32.087337 25.240377,26.440212 
	C25.260466,22.780367 23.915264,20.121534 19.919588,20.051769 
	C15.892259,19.981447 14.414800,22.772623 14.334377,26.298267 
	C13.935845,43.769600 13.560108,61.242229 13.347163,78.716492 
	C13.291586,83.277077 16.157406,86.264122 19.772352,85.984238 
	C24.342949,85.630363 24.676178,82.249725 24.690878,78.742828 
	C24.709869,74.211922 24.695507,69.680878 24.695507,64.126884 
	C29.297733,68.391197 32.710705,72.050392 36.631649,75.044342 
	C40.414337,77.932716 44.568996,80.447670 48.850578,82.529579 
	C51.777191,83.952652 54.830692,83.262093 56.276966,79.736252 
	C57.727573,76.199837 55.712196,74.540154 52.962772,72.554886 
	C45.277302,67.005455 37.925270,60.994244 30.602247,55.290386 
	C38.455093,46.681423 45.581390,39.221470 52.274639,31.391346 
	C55.947403,27.094755 55.209030,25.062584 49.395138,21.996269 
M233.975983,80.563812 
	C239.277893,83.203308 242.358215,81.842056 243.227402,76.265251 
	C243.686630,73.318878 244.152908,70.265190 243.862488,67.334618 
	C243.367920,62.343910 245.447464,58.372410 248.724152,55.329578 
	C250.942535,53.269508 254.357956,52.498440 257.237976,51.150841 
	C257.723389,53.790272 258.227234,56.426571 258.677277,59.072021 
	C258.758423,59.548901 258.535156,60.073292 258.592865,60.559063 
	C259.335358,66.809113 259.852875,73.101204 260.965393,79.285851 
	C261.565735,82.623169 264.655792,83.990143 267.517303,82.669586 
	C269.322968,81.836319 271.494965,79.085411 271.401337,77.305229 
	C270.931274,68.370560 269.871368,59.460117 268.816650,50.565125 
	C267.956818,43.313637 264.022003,39.593895 256.798859,40.150623 
	C252.427994,40.487511 248.177963,42.392326 244.065262,43.539253 
	C244.065262,40.834972 244.128052,37.690281 244.049194,34.549141 
	C243.953400,30.733311 243.991928,26.887239 243.498016,23.116381 
	C243.066772,19.823923 241.138306,17.497114 237.375214,18.052439 
	C233.721329,18.591648 232.803558,21.057550 232.784851,24.536009 
	C232.691986,41.807430 232.382309,59.077618 232.244888,76.348999 
	C232.235199,77.564438 232.999420,78.786018 233.975983,80.563812 
M154.962341,81.922302 
	C160.422226,83.722130 165.679413,83.155830 170.969543,80.995628 
	C172.330551,80.439857 174.512024,80.599564 175.766586,81.350029 
	C178.267654,82.846146 180.438110,83.831375 183.011887,81.723068 
	C185.838593,79.407585 184.408173,76.960258 183.249542,74.578407 
	C179.416977,66.699760 179.419189,58.447010 181.460510,50.251408 
	C182.280884,46.957767 181.398743,45.111309 178.936310,43.597733 
	C173.141434,40.035789 166.981735,38.921379 160.352356,41.031906 
	C151.685486,43.791088 144.765869,51.867634 144.233551,60.710152 
	C143.710495,69.399178 145.137802,77.423401 154.962341,81.922302 
M189.806152,55.207790 
	C189.584442,62.845242 189.276184,70.481598 189.180130,78.120628 
	C189.136688,81.575821 190.900803,83.918037 194.569977,83.956978 
	C198.150299,83.994980 199.987061,82.010361 200.138489,78.365509 
	C200.248810,75.710327 200.149643,72.922813 200.934357,70.444588 
	C202.653351,65.015709 204.531845,59.574215 207.071671,54.501629 
	C207.994904,52.657742 210.985229,51.848846 214.134293,49.878181 
	C214.134293,53.675896 214.030792,55.803650 214.153183,57.918331 
	C214.565384,65.040840 214.932449,72.170059 215.575577,79.273285 
	C215.872986,82.557922 217.982544,84.306076 221.424820,83.990761 
	C224.546082,83.704857 226.520554,81.910622 226.315689,78.814590 
	C225.658081,68.876511 225.042892,58.916771 223.793747,49.043522 
	C223.000626,42.774734 217.886230,39.125195 211.531433,40.155514 
	C207.808121,40.759182 204.327515,42.859875 200.551788,44.361073 
	C200.047134,40.837700 198.115784,38.305275 193.967285,39.095623 
	C189.687424,39.911007 189.374390,43.167648 189.738144,46.811256 
	C189.984802,49.282063 189.801819,51.795761 189.806152,55.207790 
M63.561813,75.045357 
	C63.633327,76.370338 63.189724,78.166595 63.882191,78.923485 
	C65.384605,80.565666 67.532280,82.789520 69.294907,82.687210 
	C71.007698,82.587784 73.888382,79.956238 73.983490,78.305649 
	C74.614563,67.352226 74.705276,56.364273 74.810295,45.386009 
	C74.841858,42.086014 72.941948,40.085484 69.534279,40.020035 
	C66.103233,39.954140 64.178658,41.944817 64.079918,45.217209 
	C63.789204,54.851372 63.709515,64.491898 63.561813,75.045357 
M286.378021,84.534775 
	C288.502411,84.542770 290.761383,85.025032 292.725433,84.467865 
	C298.133331,82.933731 300.258514,77.756989 297.390839,73.666656 
	C295.009033,70.269348 291.272369,68.941132 287.746063,70.318481 
	C285.015076,71.385185 282.059937,73.944763 280.944214,76.577888 
	C279.411774,80.194359 282.520996,82.588387 286.378021,84.534775 
M71.074371,34.527412 
	C74.822357,33.463314 78.380905,31.490341 76.618446,27.196842 
	C75.689766,24.934525 71.908356,22.294628 69.721092,22.541126 
	C67.611443,22.778875 64.641014,26.337847 64.310753,28.747746 
	C63.854961,32.073620 66.482094,34.550274 71.074371,34.527412 
z"/>
<path fill="#FAFBF9" opacity="1.000000" stroke="none" 
	d="
M106.214081,70.789917 
	C105.670776,64.222351 105.182915,58.107529 104.695000,51.992706 
	C98.752060,53.935341 95.096519,58.624058 94.973526,64.476929 
	C94.889656,68.467621 94.754242,72.458694 94.761108,76.449402 
	C94.767052,79.907722 93.044640,81.672173 89.713440,81.990143 
	C86.200455,82.325462 84.170853,80.432335 84.064987,77.173653 
	C83.725243,66.715332 83.636673,56.248066 83.546547,45.783432 
	C83.535423,44.492493 83.732971,42.901230 84.481544,41.969578 
	C85.722748,40.424820 87.759979,38.032665 88.974831,38.290676 
	C90.962456,38.712814 92.639931,40.894333 94.268684,42.514248 
	C94.722603,42.965698 94.544891,44.052231 94.750244,45.509598 
	C101.008324,40.137825 107.272232,37.029202 114.072983,43.659412 
	C116.344421,42.650337 118.494148,41.448833 120.793495,40.718258 
	C128.986267,38.115154 135.327621,41.682098 136.696381,50.023350 
	C138.202133,59.199524 139.149979,68.466225 140.424530,77.681915 
	C140.898743,81.110611 139.470535,83.272781 136.230133,83.892555 
	C132.794586,84.549667 130.302719,83.170395 129.798737,79.427719 
	C128.846039,72.352821 128.057709,65.255341 127.057632,58.187538 
	C126.718887,55.793556 125.947182,53.460838 125.377304,51.116428 
	C116.373482,53.395882 115.366402,54.700592 116.100105,62.972656 
	C116.555191,68.103470 117.196396,73.217514 117.703796,78.344055 
	C118.068504,82.028961 116.709389,84.710640 112.746597,84.936333 
	C108.579117,85.173691 106.846939,82.761108 106.875877,78.686493 
	C106.893501,76.206772 106.486046,73.724037 106.214081,70.789917 
z"/>
<path fill="#F9FAF9" opacity="1.000000" stroke="none" 
	d="
M49.771957,22.022520 
	C55.209030,25.062584 55.947403,27.094755 52.274639,31.391346 
	C45.581390,39.221470 38.455093,46.681423 30.602247,55.290386 
	C37.925270,60.994244 45.277302,67.005455 52.962772,72.554886 
	C55.712196,74.540154 57.727573,76.199837 56.276966,79.736252 
	C54.830692,83.262093 51.777191,83.952652 48.850578,82.529579 
	C44.568996,80.447670 40.414337,77.932716 36.631649,75.044342 
	C32.710705,72.050392 29.297733,68.391197 24.695507,64.126884 
	C24.695507,69.680878 24.709869,74.211922 24.690878,78.742828 
	C24.676178,82.249725 24.342949,85.630363 19.772352,85.984238 
	C16.157406,86.264122 13.291586,83.277077 13.347163,78.716492 
	C13.560108,61.242229 13.935845,43.769600 14.334377,26.298267 
	C14.414800,22.772623 15.892259,19.981447 19.919588,20.051769 
	C23.915264,20.121534 25.260466,22.780367 25.240377,26.440212 
	C25.209385,32.087337 25.232216,37.734756 25.232216,42.787586 
	C30.562391,37.706310 36.265427,32.078281 42.204193,26.711082 
	C44.305347,24.812149 46.981499,23.549442 49.771957,22.022520 
z"/>
<path fill="#FAFBF9" opacity="1.000000" stroke="none" 
	d="
M233.689880,80.284271 
	C232.999420,78.786018 232.235199,77.564438 232.244888,76.348999 
	C232.382309,59.077618 232.691986,41.807430 232.784851,24.536009 
	C232.803558,21.057550 233.721329,18.591648 237.375214,18.052439 
	C241.138306,17.497114 243.066772,19.823923 243.498016,23.116381 
	C243.991928,26.887239 243.953400,30.733311 244.049194,34.549141 
	C244.128052,37.690281 244.065262,40.834972 244.065262,43.539253 
	C248.177963,42.392326 252.427994,40.487511 256.798859,40.150623 
	C264.022003,39.593895 267.956818,43.313637 268.816650,50.565125 
	C269.871368,59.460117 270.931274,68.370560 271.401337,77.305229 
	C271.494965,79.085411 269.322968,81.836319 267.517303,82.669586 
	C264.655792,83.990143 261.565735,82.623169 260.965393,79.285851 
	C259.852875,73.101204 259.335358,66.809113 258.592865,60.559063 
	C258.535156,60.073292 258.758423,59.548901 258.677277,59.072021 
	C258.227234,56.426571 257.723389,53.790272 257.237976,51.150841 
	C254.357956,52.498440 250.942535,53.269508 248.724152,55.329578 
	C245.447464,58.372410 243.367920,62.343910 243.862488,67.334618 
	C244.152908,70.265190 243.686630,73.318878 243.227402,76.265251 
	C242.358215,81.842056 239.277893,83.203308 233.689880,80.284271 
z"/>
<path fill="#FAFBFB" opacity="1.000000" stroke="none" 
	d="
M154.587860,81.793732 
	C145.137802,77.423401 143.710495,69.399178 144.233551,60.710152 
	C144.765869,51.867634 151.685486,43.791088 160.352356,41.031906 
	C166.981735,38.921379 173.141434,40.035789 178.936310,43.597733 
	C181.398743,45.111309 182.280884,46.957767 181.460510,50.251408 
	C179.419189,58.447010 179.416977,66.699760 183.249542,74.578407 
	C184.408173,76.960258 185.838593,79.407585 183.011887,81.723068 
	C180.438110,83.831375 178.267654,82.846146 175.766586,81.350029 
	C174.512024,80.599564 172.330551,80.439857 170.969543,80.995628 
	C165.679413,83.155830 160.422226,83.722130 154.587860,81.793732 
M160.134888,71.809189 
	C162.566956,71.552177 165.088516,71.598648 167.395706,70.918198 
	C168.670120,70.542343 170.514496,68.940926 170.506958,67.903564 
	C170.466614,62.346844 169.924149,56.793774 169.556549,51.259731 
	C162.775543,50.846195 157.619537,53.913754 155.677444,59.429256 
	C153.871964,64.556732 155.028229,68.339584 160.134888,71.809189 
z"/>
<path fill="#FAFBF9" opacity="1.000000" stroke="none" 
	d="
M189.808563,54.749035 
	C189.801819,51.795761 189.984802,49.282063 189.738144,46.811256 
	C189.374390,43.167648 189.687424,39.911007 193.967285,39.095623 
	C198.115784,38.305275 200.047134,40.837700 200.551788,44.361073 
	C204.327515,42.859875 207.808121,40.759182 211.531433,40.155514 
	C217.886230,39.125195 223.000626,42.774734 223.793747,49.043522 
	C225.042892,58.916771 225.658081,68.876511 226.315689,78.814590 
	C226.520554,81.910622 224.546082,83.704857 221.424820,83.990761 
	C217.982544,84.306076 215.872986,82.557922 215.575577,79.273285 
	C214.932449,72.170059 214.565384,65.040840 214.153183,57.918331 
	C214.030792,55.803650 214.134293,53.675896 214.134293,49.878181 
	C210.985229,51.848846 207.994904,52.657742 207.071671,54.501629 
	C204.531845,59.574215 202.653351,65.015709 200.934357,70.444588 
	C200.149643,72.922813 200.248810,75.710327 200.138489,78.365509 
	C199.987061,82.010361 198.150299,83.994980 194.569977,83.956978 
	C190.900803,83.918037 189.136688,81.575821 189.180130,78.120628 
	C189.276184,70.481598 189.584442,62.845242 189.808563,54.749035 
z"/>
<path fill="#F7FAF9" opacity="1.000000" stroke="none" 
	d="
M63.554520,74.587646 
	C63.709515,64.491898 63.789204,54.851372 64.079918,45.217209 
	C64.178658,41.944817 66.103233,39.954140 69.534279,40.020035 
	C72.941948,40.085484 74.841858,42.086014 74.810295,45.386009 
	C74.705276,56.364273 74.614563,67.352226 73.983490,78.305649 
	C73.888382,79.956238 71.007698,82.587784 69.294907,82.687210 
	C67.532280,82.789520 65.384605,80.565666 63.882191,78.923485 
	C63.189724,78.166595 63.633327,76.370338 63.554520,74.587646 
z"/>
<path fill="#FA7D29" opacity="1.000000" stroke="none" 
	d="
M286.019257,84.374283 
	C282.520996,82.588387 279.411774,80.194359 280.944214,76.577888 
	C282.059937,73.944763 285.015076,71.385185 287.746063,70.318481 
	C291.272369,68.941132 295.009033,70.269348 297.390839,73.666656 
	C300.258514,77.756989 298.133331,82.933731 292.725433,84.467865 
	C290.761383,85.025032 288.502411,84.542770 286.019257,84.374283 
z"/>
<path fill="#FE7F27" opacity="1.000000" stroke="none" 
	d="
M70.785965,34.351948 
	C66.482094,34.550274 63.854961,32.073620 64.310753,28.747746 
	C64.641014,26.337847 67.611443,22.778875 69.721092,22.541126 
	C71.908356,22.294628 75.689766,24.934525 76.618446,27.196842 
	C78.380905,31.490341 74.822357,33.463314 70.785965,34.351948 
z"/>
<path fill="#173C62" opacity="1.000000" stroke="none" 
	d="
M159.755127,71.668274 
	C155.028229,68.339584 153.871964,64.556732 155.677444,59.429256 
	C157.619537,53.913754 162.775543,50.846195 169.556549,51.259731 
	C169.924149,56.793774 170.466614,62.346844 170.506958,67.903564 
	C170.514496,68.940926 168.670120,70.542343 167.395706,70.918198 
	C165.088516,71.598648 162.566956,71.552177 159.755127,71.668274 
z"/>
</svg>